<svg width="1580" height="512" viewBox="0 0 1580 512" fill="none" xmlns="http://www.w3.org/2000/svg">
<path d="M228.631 0.991575C133.503 10.6655 50.5038 75.5373 15.6364 167.155C8.05648 187.261 1.61359 217.99 0.287115 239.804C-1.98685 282.862 9.19347 315.677 35.723 342.423C60.9261 368.03 88.0241 379.221 123.839 379.032C148.095 379.032 160.033 375.997 182.583 364.426C196.795 357.218 202.859 351.717 276.384 278.689C364.879 190.675 361.468 193.331 389.135 193.331C401.452 193.331 406.189 194.279 414.906 198.263C429.497 205.091 440.109 215.145 446.931 228.802C457.922 250.995 453.563 279.258 436.13 298.606C423.812 312.453 411.874 317.953 392.735 319.091C369.048 320.419 361.468 317.005 336.075 293.864L321.484 280.586L225.03 377.893C171.971 431.384 128.576 475.96 128.576 476.908C128.576 479.374 160.791 494.739 177.846 500.429C206.081 509.724 221.809 512 258.382 512C288.701 511.81 294.955 511.241 313.904 506.879C413.58 483.168 490.894 401.794 508.897 301.641C513.065 277.551 513.065 240.562 508.707 224.629C498.095 185.744 466.449 151.032 431.203 139.461C395.577 127.7 363.932 130.166 330.391 147.428C316.178 154.636 310.304 159.947 236.59 233.165C163.444 305.814 157.19 311.694 146.958 315.487C114.933 327.248 80.4443 313.78 65.6635 284C60.1681 272.619 59.4101 269.394 59.4101 255.927C59.5996 230.509 70.5904 211.92 92.9511 199.78C104.131 193.71 106.026 193.331 122.892 193.331C145.821 193.331 153.022 196.556 173.677 215.903L189.405 230.509L196.416 224.819C211.387 212.868 384.776 37.0315 384.018 34.5656C382.123 28.1164 331.717 8.76862 303.861 3.83683C283.016 0.23284 248.528 -1.09495 228.631 0.991575ZM270.699 61.3111C270.699 65.1047 254.402 83.1247 221.809 115.181L187.51 148.755L177.467 144.772C159.843 137.754 143.168 133.581 127.06 132.253C118.533 131.684 110.953 130.356 110.385 129.408C108.679 126.752 118.533 115.181 131.987 103.99C157.38 83.1247 189.215 68.1397 220.482 62.4492C236.021 59.6039 270.699 58.8452 270.699 61.3111ZM365.826 377.135C373.785 378.842 383.071 380.17 386.103 380.17C393.304 380.17 401.452 383.205 401.452 386.05C401.452 389.464 378.712 411.088 366.395 419.434C349.53 430.815 329.822 440.299 311.062 445.8C297.608 449.784 289.08 450.922 267.478 451.681C247.959 452.439 240.38 452.06 240.38 450.542C240.38 449.404 259.519 429.298 282.827 405.777L325.085 363.288L338.16 368.789C345.361 371.634 357.868 375.617 365.826 377.135Z" fill="url(#paint0_linear_1612_1625)"/>
<path d="M556 512V194H762.163C777.006 194 790.45 195.749 802.492 199.249C814.815 202.748 825.317 207.997 833.999 214.996C842.681 221.703 849.403 230.305 854.164 240.803C858.925 251.009 861.305 262.82 861.305 276.234C861.305 286.44 860.185 295.334 857.945 302.916C855.704 310.498 852.623 317.059 848.702 322.6C844.782 328.14 834.839 336.159 834.839 336.159C849.123 340.825 861.968 357.155 870.65 369.403C879.612 381.65 884.093 397.106 884.093 415.769C884.093 430.349 881.713 443.617 876.951 455.573C872.47 467.238 865.889 477.298 857.207 485.755C848.805 494.212 838.443 500.773 826.12 505.439C814.077 509.813 800.634 512 785.791 512H556ZM648 373.777V326.974H759.587C774.711 326.974 789.558 318.532 796.839 312.7C804.121 306.868 807.113 302.478 807.113 288.481C807.113 280.025 805.573 273.318 802.492 268.36C799.411 263.111 794.93 259.174 789.049 256.55C783.448 253.634 776.586 251.738 768.465 250.864C760.623 249.989 751.801 249.551 741.999 249.551H609.352V456.886H763.946C783.271 456.886 799.094 453.824 811.417 447.7C823.74 441.285 829.901 430.349 829.901 414.894C829.901 401.771 825.98 391.711 818.138 384.712C810.297 377.422 798.814 373.777 783.691 373.777H648Z" fill="#333333"/>
<path d="M1070.04 512C1048.75 512 1029.01 507.917 1010.8 499.752C992.88 491.295 977.196 479.923 963.753 465.634C950.59 451.053 940.228 433.848 932.666 414.019C925.385 394.19 921.744 372.756 921.744 349.719C921.744 326.39 925.385 305.103 932.666 285.857C940.228 266.611 950.59 250.28 963.753 236.866C977.196 223.161 992.88 212.663 1010.8 205.373C1029.01 197.791 1048.75 194 1070.04 194H1127.07C1149.19 194 1169.36 197.791 1187.56 205.373C1206.04 212.954 1221.87 223.598 1235.03 237.304C1248.19 251.009 1258.42 267.485 1265.7 286.732C1272.98 305.686 1276.62 326.682 1276.62 349.719C1276.62 372.756 1272.84 394.19 1265.28 414.019C1258 433.848 1247.63 451.053 1234.19 465.634C1221.03 479.923 1205.34 491.295 1187.14 499.752C1168.94 507.917 1148.91 512 1127.07 512H1070.04ZM1127.07 456.448C1141.07 456.448 1153.95 453.824 1165.72 448.575C1177.48 443.326 1187.56 436.181 1195.96 427.141C1204.64 417.81 1211.37 406.729 1216.13 393.898C1220.89 381.067 1223.27 367.216 1223.27 352.344C1223.27 337.472 1220.89 323.766 1216.13 311.227C1211.37 298.396 1204.64 287.461 1195.96 278.421C1187.56 269.381 1177.48 262.382 1165.72 257.425C1153.95 252.176 1141.07 249.551 1127.07 249.551H1070.04C1056.31 249.551 1043.57 252.176 1031.81 257.425C1020.33 262.382 1010.38 269.381 1001.98 278.421C993.58 287.461 986.998 298.25 982.237 310.789C977.476 323.329 975.096 337.18 975.096 352.344C975.096 367.216 977.476 381.067 982.237 393.898C986.998 406.729 993.58 417.81 1001.98 427.141C1010.38 436.181 1020.33 443.326 1031.81 448.575C1043.57 453.824 1056.31 456.448 1070.04 456.448H1127.07Z" fill="#333333"/>
<path d="M1410.7 512V249.551H1294.76V194H1580V249.551H1464.05V512H1410.7Z" fill="#333333"/>
<path d="M558.22 167.946V138.966H668.2C675.061 138.966 680.308 136.989 683.94 133.034C687.707 129.078 689.59 123.83 689.59 117.289C689.59 109.987 687.707 104.586 683.94 101.087C680.308 97.5884 675.061 95.8389 668.2 95.8389H600.799C593.938 95.8389 587.682 94.698 582.032 92.4161C576.516 89.9821 571.808 86.7114 567.906 82.604C564.139 78.3445 561.179 73.3244 559.027 67.5436C557.009 61.7629 556 55.4497 556 48.604C556 41.9105 556.942 35.7494 558.825 30.1208C560.843 24.3401 563.736 19.396 567.502 15.2886C571.404 11.1812 576.18 7.98658 581.83 5.70471C587.481 3.2707 593.938 2.05369 601.203 2.05369H706.541V31.0336H601.203C595.149 31.0336 590.507 32.8591 587.279 36.5101C584.184 40.0089 582.637 44.953 582.637 51.3423C582.637 57.7315 584.252 62.6756 587.481 66.1745C590.844 69.6734 595.351 71.4228 601.001 71.4228H668.2C683.267 71.4228 694.635 75.3781 702.304 83.2886C709.972 91.1991 713.806 103.217 713.806 119.342C713.806 126.34 712.864 132.805 710.981 138.738C709.098 144.671 706.272 149.843 702.505 154.255C698.739 158.515 693.963 161.861 688.178 164.295C682.527 166.729 675.868 167.946 668.2 167.946H558.22Z" fill="#333333"/>
<path d="M839.964 168.631V96.5235H767.492V70.7383H839.964V2.05369H865.592V168.631H839.964ZM735.779 168.631V2.05369H761.407V168.631H735.779Z" fill="#333333"/>
<path d="M892.409 167.946V2.05369H918.037V167.946H892.409Z" fill="#333333"/>
<path d="M968.608 46.5503V167.946H944.191V17.3423C944.191 12.0179 945.334 7.83445 947.621 4.79195C950.043 1.59732 953.272 0 957.308 0C959.191 0 961.007 0.456379 962.756 1.36914C964.505 2.28189 966.321 3.80314 968.205 5.93289L1071.73 122.081V0.684568H1096.14V152.658C1096.14 158.134 1094.93 162.394 1092.51 165.436C1090.23 168.479 1087.2 170 1083.43 170C1079.26 170 1075.36 167.946 1071.73 163.839L968.608 46.5503Z" fill="#333333"/>
<path d="M1154.08 95.8389V71.4228H1232.63V95.8389H1154.08Z" fill="#333333"/>
<path d="M1274.1 167.946V138.966H1384.08C1390.94 138.966 1396.19 136.989 1399.82 133.034C1403.58 129.078 1405.47 123.83 1405.47 117.289C1405.47 109.987 1403.58 104.586 1399.82 101.087C1396.19 97.5884 1390.94 95.8389 1384.08 95.8389H1316.68C1309.82 95.8389 1303.56 94.698 1297.91 92.4161C1292.39 89.9821 1287.69 86.7114 1283.78 82.604C1280.02 78.3445 1277.06 73.3244 1274.9 67.5436C1272.89 61.7629 1271.88 55.4497 1271.88 48.604C1271.88 41.9105 1272.82 35.7494 1274.7 30.1208C1276.72 24.3401 1279.61 19.396 1283.38 15.2886C1287.28 11.1812 1292.06 7.98658 1297.71 5.70471C1303.36 3.2707 1309.82 2.05369 1317.08 2.05369H1422.42V31.0336H1317.08C1311.03 31.0336 1306.39 32.8591 1303.16 36.5101C1300.06 40.0089 1298.52 44.953 1298.52 51.3423C1298.52 57.7315 1300.13 62.6756 1303.36 66.1745C1306.72 69.6734 1311.23 71.4228 1316.88 71.4228H1384.08C1399.15 71.4228 1410.51 75.3781 1418.18 83.2886C1425.85 91.1991 1429.68 103.217 1429.68 119.342C1429.68 126.34 1428.74 132.805 1426.86 138.738C1424.98 144.671 1422.15 149.843 1418.38 154.255C1414.62 158.515 1409.84 161.861 1404.06 164.295C1398.41 166.729 1391.75 167.946 1384.08 167.946H1274.1Z" fill="#333333"/>
<path d="M1498.68 167.946V31.0336H1442.98V2.05369H1580V31.0336H1524.3V167.946H1498.68Z" fill="#333333"/>
<path d="M1120.98 2.05369H1251.94V31.0336H1146.4V138.966H1252.14V167.946C1252.14 167.946 1165.17 167.946 1146.4 167.946C1127.63 167.946 1120.98 155.396 1120.98 138.738C1120.98 122.081 1120.98 2.05369 1120.98 2.05369Z" fill="#333333"/>
<defs>
<linearGradient id="paint0_linear_1612_1625" x1="0.6662" y1="256.401" x2="512.308" y2="256.401" gradientUnits="userSpaceOnUse">
<stop stop-color="#42C0FF"/>
<stop offset="0.510417" stop-color="#770CFF"/>
<stop offset="1" stop-color="#FF2C78"/>
</linearGradient>
</defs>
</svg>
